<svg width="24" height="24" viewBox="0 0 24 24" fill="none" xmlns="http://www.w3.org/2000/svg">
<mask id="mask0_586_2891" style="mask-type:alpha" maskUnits="userSpaceOnUse" x="0" y="0" width="24" height="24">
<rect width="24" height="24" fill="#C4C4C4"/>
</mask>
<g mask="url(#mask0_586_2891)">
<path d="M21.6001 12.8915V19.5103H17.7257V13.2951C17.7257 11.7614 17.1606 10.7121 15.7884 10.7121C14.7391 10.7121 14.0934 11.4386 13.8512 12.0843C13.7705 12.3264 13.6898 12.6493 13.6898 13.0529V19.5103H9.81534C9.81534 19.5103 9.89606 9.01703 9.81534 7.9677H13.6898V9.58205C14.1741 8.77488 15.1427 7.64483 17.1606 7.64483C19.6629 7.64483 21.6001 9.3399 21.6001 12.8915ZM5.77947 2.39819C4.48799 2.39819 3.6001 3.28609 3.6001 4.41613C3.6001 5.54618 4.40727 6.43407 5.69875 6.43407C7.07095 6.43407 7.87812 5.54618 7.87812 4.41613C7.95884 3.20537 7.15167 2.39819 5.77947 2.39819ZM3.84225 19.5103H7.71669V7.9677H3.84225V19.5103Z" fill="white"/>
</g>
</svg>
