<svg width="172" height="39" viewBox="0 0 172 39" fill="none" xmlns="http://www.w3.org/2000/svg">
<path d="M168.93 11.1414V19.9146C168.207 22.9045 166.432 24.6505 164.284 24.6505C162.224 24.6505 160.822 23.3629 160.778 20.242V11.1414H157.798L157.864 20.0238C157.798 24.8251 159.989 27.0075 163.561 27.0075C166.169 27.0075 167.571 25.7417 168.623 24.0176H169.302C169.302 24.0176 169.171 26.4837 169.149 27.3348C169.061 30.4557 166.914 31.2632 164.854 31.2632C162.86 31.2632 160.909 30.8049 160.778 27.8804H157.798C157.864 32.4853 161.326 33.5984 164.854 33.5984C168.426 33.5984 171.91 32.1361 171.866 27.3348L171.91 11.1632H168.93V11.1414Z" fill="black"/>
<path d="M54.8066 10.7485C52.1332 10.7485 50.687 12.058 49.679 13.7384H48.9997L49.3503 5.79443H46.3701V27.8368H49.3503V18.1687C50.0077 14.8514 51.7826 13.1055 53.9739 13.1055C56.0995 13.1055 57.5019 14.4586 57.5019 17.4922V27.8368H60.504V17.3612C60.504 13.0182 58.247 10.7485 54.8066 10.7485Z" fill="black"/>
<path d="M74.0903 20.8094C73.4329 24.1267 71.658 25.8726 69.4667 25.8726C67.3411 25.8726 65.9387 24.5195 65.9387 21.486V11.1414H62.9585V21.6169C62.9585 25.9599 65.2155 28.2296 68.6559 28.2296C71.3293 28.2296 72.7755 26.9202 73.7835 25.2397H74.4628L74.1122 27.8368H77.0924V11.1414H74.0903V20.8094Z" fill="black"/>
<path d="M131.896 10.7485C129.223 10.7485 127.777 12.058 126.769 13.7384H126.09L126.44 11.1414H123.46V27.8368H126.44V18.1687C127.098 14.8515 128.872 13.1055 131.064 13.1055C133.189 13.1055 134.592 14.4586 134.592 17.4922V27.8368H137.572V17.3612C137.594 13.0182 135.359 10.7485 131.896 10.7485Z" fill="black"/>
<path d="M147.543 10.7485C142.7 10.7485 139.698 14.3059 139.698 19.5436C139.698 24.6287 142.503 28.2296 147.718 28.2296C152.539 28.2296 154.599 25.698 155.081 22.2717H152.21C151.728 24.7378 150.917 26.0691 147.74 26.0691C144.453 26.0691 142.766 24.0176 142.656 20.002H155.344C155.344 20.002 155.344 19.8928 155.344 19.6746C155.344 14.0876 152.407 10.7485 147.543 10.7485ZM142.744 17.8195C143.16 14.6769 144.803 12.8873 147.565 12.8873C150.523 12.8873 152.057 15.157 152.166 17.8195H142.744Z" fill="black"/>
<path d="M113.292 10.7485C108.209 10.7485 105.338 14.2622 105.338 19.5436C105.338 24.8033 108.209 28.2296 113.292 28.2296C118.398 28.2296 121.247 24.716 121.247 19.4782C121.247 14.2186 118.42 10.7485 113.292 10.7485ZM113.292 26.0691C110.005 26.0691 108.34 23.7339 108.34 19.5436C108.34 15.3534 109.962 12.9528 113.292 12.9309C116.557 12.9309 118.179 15.3534 118.179 19.5436C118.179 23.7339 116.579 26.0691 113.292 26.0691Z" fill="black"/>
<path d="M97.9315 10.7485C95.7621 10.7485 94.1406 11.7961 92.9573 13.7384H92.256C91.4891 11.687 90.0428 10.7485 87.8296 10.7485C85.3315 10.7485 84.1263 11.9925 83.0745 13.7384H82.4171L82.7458 11.1414H79.7656V27.8368H82.7458V18.1687C83.4032 14.9606 84.9809 13.1055 86.9312 13.1055C88.8814 13.1055 90.1524 14.3713 90.1524 17.4922V27.8368H93.1326V17.4485C93.8557 14.6987 95.2362 13.1055 97.0331 13.1055C98.9833 13.1055 100.232 14.3713 100.232 17.4922V27.8368H103.213V17.3612C103.256 12.8218 101.218 10.7485 97.9315 10.7485Z" fill="black"/>
<path d="M31.5352 10.7049C31.2722 9.94102 30.9655 9.17718 30.571 8.45699L28.0072 9.81008C28.314 10.3775 28.5769 10.9886 28.7742 11.5997C29.1686 12.7782 29.3658 14.0003 29.3658 15.2225V19.5655C29.3658 20.2857 28.7084 20.8531 27.8976 20.8531C27.0868 20.8531 26.4295 20.2638 26.4295 19.5655V15.6153C26.4295 10.0938 21.8277 5.40161 16.1961 5.40161C12.8872 5.40161 9.92897 7.01659 8.06636 9.48272C6.92689 11.185 7.32132 13.4765 8.92097 14.8078C9.03053 14.8951 9.1401 14.9824 9.24966 15.0479C10.0385 15.5716 10.937 15.8117 11.8135 15.7681C13.0187 15.7026 14.1801 15.1352 14.9032 14.0876C15.1443 13.6948 15.6483 13.4111 16.1961 13.4111C17.0069 13.4111 17.6643 14.0003 17.6643 14.6987V19.4563H20.5787V14.9169C20.5787 12.6036 18.6065 10.7267 16.1961 10.7267C14.6403 10.7267 13.2597 11.5124 12.4928 12.6909C12.1203 13.2583 11.3095 13.3674 10.674 12.9528C10.0385 12.5163 9.92897 11.7742 10.3234 11.2068C11.6601 9.32995 13.8076 8.04233 16.1961 8.04233C20.2281 8.04233 23.515 11.6651 23.515 15.5716V19.3036C23.515 21.6169 24.8079 23.4938 27.2183 23.4938C28.555 23.4938 29.1467 22.3589 29.1467 22.3589H29.5849L29.3658 28.0332C29.3658 28.7534 28.7084 29.3208 27.8976 29.3208C27.0868 29.3208 26.4295 28.7316 26.4295 28.0332V25.3488H23.515V27.815C23.515 30.1283 25.4872 32.0052 27.8976 32.0052C30.3081 32.0052 32.2802 30.1283 32.2802 27.815V25.3488V15.2443C32.2583 13.6948 32.0173 12.1671 31.5352 10.7049Z" fill="black"/>
<path d="M5.83089 31.3723L3.61768 33.2492C6.6855 36.872 11.2653 38.9453 16.1738 38.9453V36.2609C12.1199 36.2609 8.35088 34.3404 5.83089 31.3723Z" fill="black"/>
<path d="M16.1738 0.0546875C11.2653 0.0546875 6.6855 2.12798 3.61768 5.75078L5.83089 7.62765C8.35088 4.65957 12.1199 2.73905 16.1738 2.73905C20.2277 2.73905 23.9968 4.65957 26.5168 7.62765L28.73 5.75078C25.6622 2.12798 21.0823 0.0546875 16.1738 0.0546875Z" fill="black"/>
<path d="M16.1741 28.2298C18.5845 28.2298 20.5567 26.3529 20.5567 24.0396V22.4464H17.6423V24.2796C17.6423 24.9998 16.9849 25.5672 16.1741 25.5672C15.3633 25.5672 14.7059 24.978 14.7059 24.2796V19.522H11.7915V24.0614C11.7915 26.3529 13.7637 28.2298 16.1741 28.2298Z" fill="black"/>
<path d="M20.6004 29.4955C19.8773 30.0411 19.0227 30.4557 18.1023 30.674C17.4669 30.8267 16.8314 30.914 16.174 30.914C15.5166 30.914 14.8592 30.8267 14.2456 30.674C11.0683 29.8665 8.85505 26.9639 8.85505 23.9085V19.5C8.85505 17.1867 7.51835 15.3098 5.10792 15.3098C3.85888 15.3098 3.2234 16.4447 3.2234 16.4447H2.78514C2.78514 15.2007 3.20149 12.7782 3.59592 11.6215C3.79314 11.0105 4.0561 10.3994 4.36288 9.83195L1.77714 8.45703C1.40462 9.17723 1.07593 9.94107 0.812972 10.7049C0.330886 12.1671 0.0898438 13.6948 0.0898438 15.2443V23.7557C0.0898438 25.3052 0.330886 26.8329 0.812972 28.2951C1.07593 29.059 1.38271 29.8228 1.77714 30.543L4.34097 29.1899C4.03418 28.6225 3.77123 28.0114 3.57401 27.4004C3.17958 26.2218 2.98236 24.9997 2.98236 23.7776V19.3036C2.98236 18.5834 3.63975 18.016 4.45053 18.016C5.26131 18.016 5.9187 18.6052 5.9187 19.3036V23.9303C5.9187 28.317 9.03035 32.158 13.5006 33.2929C14.3552 33.5111 15.2536 33.6202 16.1521 33.6202C17.0505 33.6202 17.9489 33.5111 18.8036 33.2929C20.0964 32.9655 21.2797 32.4199 22.2877 31.6779L20.6004 29.4955Z" fill="black"/>
</svg>
