<svg width="24" height="24" viewBox="0 0 24 24" fill="none" xmlns="http://www.w3.org/2000/svg">
<mask id="mask0_586_2903" style="mask-type:alpha" maskUnits="userSpaceOnUse" x="0" y="0" width="24" height="24">
<rect width="24" height="24" fill="#C4C4C4"/>
</mask>
<g mask="url(#mask0_586_2903)">
<path d="M22.9046 6.75555C22.1846 7.06412 21.3618 7.26984 20.5389 7.3727C21.3618 6.85841 22.0818 6.03556 22.3903 5.10984C21.5675 5.62413 20.7446 5.9327 19.7161 6.13842C18.9961 5.31556 17.8646 4.80127 16.7332 4.80127C14.4703 4.80127 12.6189 6.6527 12.6189 8.91556C12.6189 9.22413 12.6189 9.53269 12.7218 9.84126C9.32748 9.63555 6.24177 7.98984 4.18462 5.52127C3.87605 6.13841 3.67034 6.85841 3.67034 7.57841C3.67034 9.01841 4.39034 10.2527 5.52177 10.9727C4.80177 10.9727 4.18462 10.767 3.67034 10.4584C3.67034 12.4127 5.11033 14.1613 6.96176 14.4698C6.65319 14.5727 6.24177 14.5727 5.83034 14.5727C5.52177 14.5727 5.31605 14.5727 5.00748 14.4698C5.52177 16.1156 7.06463 17.3498 8.91606 17.3498C7.47606 18.4813 5.72749 19.0984 3.7732 19.0984C3.46463 19.0984 3.15606 19.0984 2.74463 18.9956C4.59606 20.127 6.75605 20.847 9.12177 20.847C16.7332 20.847 20.8475 14.5727 20.8475 9.12127V8.60698C21.6703 8.29841 22.3903 7.57841 22.9046 6.75555Z" fill="white"/>
</g>
</svg>
